# xmcd
#
# Track frame offsets:
#	150
#	14731
#	36081
#	52034
#	67916
#	83375
#	105057
#	123064
#	136330
#	150529
#	164991
#	183970
#	199141
#	214042
#	234593
#	251629
#	266991
#	282481
#	296665
#	317671
#
# Disc length: 4449 seconds
#
# Revision: 0
# Processed by: cddbd v1.5.2PL0 Copyright (c) Steve Scherf et al.
# Submitted via: EasyCDDAExtractor 2010.6.0.0
#
DISCID=21115f14
DTITLE=Various Artist - The Best Dance Album In The World... Ever!
DYEAR=2009
DGENRE=Dance
TTITLE0=The Tamperer feat. Maya - Feel It
TTITLE1=Eiffel 65 - Blue
TTITLE2=Gala - Freed From Desire
TTITLE3=Phats and Small - Turn Around
TTITLE4=The Shapeshifters - Lola's Theme
TTITLE5=The Chemical Brothers - Hey Boy Hey Girl
TTITLE6=Fatboy Slim - The Rockafeller Skank
TTITLE7=Lasgo - Something
TTITLE8=Binary Finary - 1999
TTITLE9=DJ Quicksilver - Bellissima
TTITLE10=B.B.E. - Seven Days and One Week
TTITLE11=Fragma - Toca's Miracle
TTITLE12=Mousse T Vs. Dandy Warhols - Horny As A Dandy
TTITLE13=Blondie - Atomic '98 (Xenomania Mix)
TTITLE14=Spiller feat. Sophie Ellis-Bextor - Groovejet (If This Ain't Love)
TTITLE15=Room 5 feat. Oliver Cheatham - Make Luv
TTITLE16=Kylie Minogue - Spinning Around
TTITLE17=The Ones - Flawless
TTITLE18=George Michael - Star People '97
TTITLE19=Chumbawamba - Tubthumping
EXTD=YEAR: 2009\n
EXTT0=
EXTT1=
EXTT2=
EXTT3=
EXTT4=
EXTT5=
EXTT6=
EXTT7=
EXTT8=
EXTT9=
EXTT10=
EXTT11=
EXTT12=
EXTT13=
EXTT14=
EXTT15=
EXTT16=
EXTT17=
EXTT18=
EXTT19=
PLAYORDER=
